<?xml version="1.0" standalone="no"?>
<!DOCTYPE svg PUBLIC "-//W3C//DTD SVG 20010904//EN"
 "http://www.w3.org/TR/2001/REC-SVG-20010904/DTD/svg10.dtd">
<svg version="1.0" xmlns="http://www.w3.org/2000/svg"
 width="240.000000pt" height="240.000000pt" viewBox="0 0 240.000000 240.000000"
 preserveAspectRatio="xMidYMid meet">

<g transform="translate(0.000000,240.000000) scale(0.100000,-0.100000)"
fill="#000000" stroke="none">
<path d="M0 1200 l0 -1200 1200 0 1200 0 0 1200 0 1200 -1200 0 -1200 0 0
-1200z m2217 614 c3 -10 -13 -21 -412 -279 -159 -104 -326 -211 -370 -240 -96
-63 -122 -71 -172 -50 -41 17 -177 99 -205 123 -33 28 -7 31 64 6 119 -40 130
-38 350 77 106 56 254 133 328 172 421 221 409 215 417 191z m-1249 -379 c29
-14 51 -29 48 -34 -3 -5 -28 -9 -54 -9 -27 0 -60 -7 -73 -15 -39 -25 -312
-167 -321 -167 -4 0 -8 7 -8 15 0 11 234 183 305 223 29 17 44 15 103 -13z
m970 1 c-2 -8 -113 -91 -247 -185 -263 -184 -276 -190 -344 -155 -59 31 -119
76 -110 84 4 5 35 1 69 -8 58 -15 62 -15 100 4 90 46 480 257 489 265 15 14
47 11 43 -5z m-845 -158 c37 -24 67 -49 67 -57 0 -8 -6 -11 -17 -6 -10 4 -41
12 -69 18 l-51 11 -129 -71 c-348 -189 -412 -223 -422 -223 -35 0 1 37 111
113 67 47 145 101 172 121 230 162 230 162 338 94z m747 -102 c0 -8 -42 -42
-92 -77 -51 -34 -117 -80 -146 -102 -82 -59 -101 -63 -167 -33 -30 13 -55 30
-55 35 0 6 23 11 53 11 46 1 70 10 217 90 91 50 171 90 178 90 6 0 12 -6 12
-14z m-603 -77 c57 -34 106 -66 109 -71 13 -21 -10 -20 -93 6 -67 20 -95 24
-118 17 -16 -5 -234 -115 -484 -245 -249 -129 -457 -233 -462 -230 -5 3 -9 9
-9 13 0 7 222 154 740 489 63 41 124 78 135 83 35 15 76 1 182 -62z"/>
</g>
</svg>
