<svg xmlns="http://www.w3.org/2000/svg" xmlns:xlink="http://www.w3.org/1999/xlink" width="157.413" height="53.65" viewBox="0 0 157.413 53.65">
  <defs>
    <clipPath id="clip-path">
      <rect id="Rectangle_36" data-name="Rectangle 36" width="157.413" height="53.65" transform="translate(0 0)" fill="none"/>
    </clipPath>
  </defs>
  <g id="Group_8518" data-name="Group 8518" transform="translate(0 0)">
    <g id="Group_8517" data-name="Group 8517" clip-path="url(#clip-path)">
      <path id="Path_15357" data-name="Path 15357" d="M58.27,13.8c6.835,1.106,11.564,6.115,17.237,9.367a1.162,1.162,0,0,1,.378,1.72,1.206,1.206,0,0,1-1.716.383c-10.789-5.984-19.286.238-28.148,5.078-13.666,7.462-27.435,14.74-41.2,22.022-1.416.749-3.749,2.151-4.636.521C-.674,51.315,1.665,50.265,2.9,49.4q23.463-16.341,47.01-32.562c2.481-1.713,5.127-3.067,8.359-3.04" fill="#0e2045"/>
      <path id="Path_15358" data-name="Path 15358" d="M99.144,39.847c-6.835-1.106-11.564-6.115-17.237-9.367a1.162,1.162,0,0,1-.378-1.72,1.206,1.206,0,0,1,1.716-.383c10.789,5.984,19.286-.238,28.148-5.078,13.666-7.462,27.435-14.74,41.2-22.022,1.416-.749,3.749-2.151,4.636-.521.86,1.579-1.479,2.629-2.715,3.489Q131.05,20.586,107.5,36.807c-2.481,1.713-5.127,3.067-8.359,3.04" fill="#0e2045"/>
    </g>
  </g>
</svg>
